<svg width="360" height="640" viewBox="0 0 360 640" fill="none" xmlns="http://www.w3.org/2000/svg">
<g clip-path="url(#clip0)">
<path d="M-4 285C-4 285 151 284 246 197C341 110 357 14 357 14" stroke="#7C60D9"/>
<path d="M0 297.008C0 297.008 155 296.008 250 209.008C345 122.008 361 26.0084 361 26.0084" stroke="#7C60D9"/>
<path d="M357.795 344.53C357.795 344.53 271.068 360.267 180.419 450.4C89.7705 540.533 66.3085 700 66.3085 700" stroke="#4C7DFB"/>
<path d="M357.983 317.27C357.983 317.27 271.256 333.007 180.607 423.14C89.9587 513.273 66.4967 672.74 66.4967 672.74" stroke="#4C7DFB"/>
</g>
<defs>
<clipPath id="clip0">
<rect width="360" height="640" rx="24" fill="white"/>
</clipPath>
</defs>
</svg>
